<!DOCTYPE svg PUBLIC "-//W3C//DTD SVG 1.1//EN" "http://www.w3.org/Graphics/SVG/1.1/DTD/svg11.dtd">
<!-- Uploaded to: SVG Repo, www.svgrepo.com, Transformed by: SVG Repo Mixer Tools -->
<svg width="800px" height="800px" viewBox="0 0 24 24" fill="none" xmlns="http://www.w3.org/2000/svg" stroke="#bbbbb" stroke-width="0.00024000000000000003">
<g id="SVGRepo_bgCarrier" stroke-width="0"/>
<g id="SVGRepo_tracerCarrier" stroke-linecap="round" stroke-linejoin="round" stroke="#ffffff" stroke-width="0.4800000000000001"> <path fill-rule="evenodd" clip-rule="evenodd" d="M5.5 10.5H5.51894C5.77426 7.14378 8.57839 4.5 12 4.5C15.4216 4.5 18.2257 7.14378 18.4811 10.5H18.5C18.5 10.5555 18.4971 10.6101 18.4915 10.6639C18.4971 10.7752 18.5 10.8873 18.5 11C18.5 12.8694 17.7108 14.5545 16.4474 15.7403L20.3536 19.6464C20.5488 19.8417 20.5488 20.1583 20.3536 20.3536C20.1583 20.5488 19.8417 20.5488 19.6464 20.3536L15.6631 16.3702C14.7492 16.9948 13.6677 17.3922 12.5 17.4811V20C12.5 20.2761 12.2761 20.5 12 20.5C11.7239 20.5 11.5 20.2761 11.5 20V17.4811C10.3323 17.3922 9.25076 16.9948 8.33686 16.3702L4.35355 20.3536C4.15829 20.5488 3.84171 20.5488 3.64645 20.3536C3.45118 20.1583 3.45118 19.8417 3.64645 19.6464L7.55257 15.7403C6.28919 14.5545 5.5 12.8694 5.5 11C5.5 10.8873 5.50287 10.7752 5.50854 10.6639C5.5029 10.6101 5.5 10.5555 5.5 10.5ZM12 5.5C9.09026 5.5 6.70826 7.75955 6.51294 10.6197C6.54406 10.7652 6.63482 10.9321 6.8224 11.1169C7.06551 11.3564 7.44294 11.5951 7.94967 11.8062C8.96094 12.2276 10.3927 12.5 12 12.5C13.6073 12.5 15.0391 12.2276 16.0503 11.8062C16.5571 11.5951 16.9345 11.3564 17.1776 11.1169C17.3652 10.9321 17.4559 10.7652 17.4871 10.6197C17.2917 7.75955 14.9097 5.5 12 5.5ZM12 16.5C14.6089 16.5 16.7935 14.6836 17.3582 12.2464C17.0849 12.4274 16.7732 12.5884 16.4349 12.7293C15.2747 13.2128 13.7064 13.5 12 13.5C10.2936 13.5 8.72535 13.2128 7.56505 12.7293C7.22683 12.5884 6.91515 12.4274 6.64183 12.2464C7.20651 14.6836 9.39113 16.5 12 16.5Z" fill="#ffffff"/> </g>
<g id="SVGRepo_iconCarrier"> <path fill-rule="evenodd" clip-rule="evenodd" d="M5.5 10.5H5.51894C5.77426 7.14378 8.57839 4.5 12 4.5C15.4216 4.5 18.2257 7.14378 18.4811 10.5H18.5C18.5 10.5555 18.4971 10.6101 18.4915 10.6639C18.4971 10.7752 18.5 10.8873 18.5 11C18.5 12.8694 17.7108 14.5545 16.4474 15.7403L20.3536 19.6464C20.5488 19.8417 20.5488 20.1583 20.3536 20.3536C20.1583 20.5488 19.8417 20.5488 19.6464 20.3536L15.6631 16.3702C14.7492 16.9948 13.6677 17.3922 12.5 17.4811V20C12.5 20.2761 12.2761 20.5 12 20.5C11.7239 20.5 11.5 20.2761 11.5 20V17.4811C10.3323 17.3922 9.25076 16.9948 8.33686 16.3702L4.35355 20.3536C4.15829 20.5488 3.84171 20.5488 3.64645 20.3536C3.45118 20.1583 3.45118 19.8417 3.64645 19.6464L7.55257 15.7403C6.28919 14.5545 5.5 12.8694 5.5 11C5.5 10.8873 5.50287 10.7752 5.50854 10.6639C5.5029 10.6101 5.5 10.5555 5.5 10.5ZM12 5.5C9.09026 5.5 6.70826 7.75955 6.51294 10.6197C6.54406 10.7652 6.63482 10.9321 6.8224 11.1169C7.06551 11.3564 7.44294 11.5951 7.94967 11.8062C8.96094 12.2276 10.3927 12.5 12 12.5C13.6073 12.5 15.0391 12.2276 16.0503 11.8062C16.5571 11.5951 16.9345 11.3564 17.1776 11.1169C17.3652 10.9321 17.4559 10.7652 17.4871 10.6197C17.2917 7.75955 14.9097 5.5 12 5.5ZM12 16.5C14.6089 16.5 16.7935 14.6836 17.3582 12.2464C17.0849 12.4274 16.7732 12.5884 16.4349 12.7293C15.2747 13.2128 13.7064 13.5 12 13.5C10.2936 13.5 8.72535 13.2128 7.56505 12.7293C7.22683 12.5884 6.91515 12.4274 6.64183 12.2464C7.20651 14.6836 9.39113 16.5 12 16.5Z" fill="#ffffff"/> </g>
</svg>